<svg id="SvgjsSvg1000" xmlns="http://www.w3.org/2000/svg" version="1.1" xmlns:xlink="http://www.w3.org/1999/xlink" xmlns:svgjs="http://svgjs.com/svgjs" width="24" height="25" viewBox="0 0 24 25"><title>sign up icon</title><desc>Created with Avocode.</desc><defs id="SvgjsDefs1001"></defs><path id="SvgjsPath1007" d="M223.043 89.9064C220.466 87.3217 216.281 87.3225 213.701 89.9073C211.843 91.7706 211.346 94.4651 212.168 96.79570000000001L202.359 106.62700000000001L201.02100000000002 110.641L205.02700000000002 111.97800000000001L206.221 110.641L210.085 109.302V106.628L211.55800000000002 105.291L212.96400000000003 106.628L215.66800000000003 103.952L214.35100000000003 102.615L216.16200000000003 100.806C218.49100000000004 101.634 221.18300000000002 101.136 223.04300000000003 99.2705C225.62400000000002 96.6867 225.62400000000002 92.492 223.04300000000003 89.90639999999999ZM219.878 95.2261C218.696 95.2261 217.736 94.26310000000001 217.736 93.0784C217.736 91.8938 218.696 90.9308 219.878 90.9308C221.05999999999997 90.9308 222.021 91.8938 222.021 93.0784C222.021 94.26310000000001 221.05999999999997 95.2261 219.878 95.2261Z " fill="#df2671" fill-opacity="1" transform="matrix(1,0,0,1,-201,-87)"></path></svg>